<svg width="94" height="94" viewBox="0 0 94 94" fill="none" xmlns="http://www.w3.org/2000/svg">
<path d="M94 44.8947V49.0975L93.9089 49.7712C93.7562 51.6082 93.6475 53.4451 93.436 55.239C92.7138 61.0599 91.1495 66.6379 88.8302 71.6623C85.4193 79.2131 80.4611 85.3067 74.5397 89.2254C71.0933 91.5337 67.37 93.0185 63.5391 93.6122C62.6814 93.7532 61.8266 93.8786 60.9835 94H27.9524C27.7849 93.9608 27.6322 93.8982 27.4618 93.8786C24.1497 93.6114 20.9004 92.5541 17.8683 90.7569C11.2121 86.8009 6.25668 80.4125 3.01378 71.6231C1.58825 67.7294 0.662846 63.5442 0.276116 59.2421L0 56.1008V52.0194C0.0293741 51.7962 0.0763726 51.569 0.0910597 51.3457C0.258492 47.4485 0.854786 43.6335 1.89757 39.983C4.69692 30.1713 9.59358 22.886 16.5376 18.1545C20.1005 15.7473 24.0064 14.3775 27.9964 14.1358C29.9704 14.0144 31.9443 14.1358 33.8859 14.504C33.9882 14.5198 34.0918 14.506 34.1897 14.4634C34.2875 14.4208 34.3773 14.3505 34.4529 14.2573C37.2286 10.3938 40.4842 7.19899 44.0758 4.81378C47.5415 2.48951 51.2853 0.99159 55.1381 0.387766C56.0575 0.24676 56.974 0.121422 57.8758 0H60.6898C60.8748 0.0391683 61.0717 0.0822535 61.242 0.101838C62.649 0.325097 64.0414 0.47002 65.4337 0.795117C69.7018 1.77432 73.8024 3.87375 77.4594 6.97587C83.0914 11.6589 87.603 18.3896 90.4634 26.3759C92.1759 31.0683 93.2774 36.1288 93.7209 41.3108L93.9971 44.9025L94 44.8947ZM41.4321 17.7393C41.4938 17.8412 41.5085 17.9038 41.5379 17.9038C43.4648 19.2081 45.3154 20.72 47.0602 22.4317C47.166 22.5335 47.4421 22.4944 47.5801 22.3925C52.3534 18.272 57.5556 16.8659 63.1249 18.1898C68.5855 19.5176 73.0387 23.2072 76.4343 29.1255C80.2735 35.8155 81.7422 43.3867 80.6877 51.7883C79.968 57.4207 78.2996 62.4969 75.4708 66.7232C70.301 74.455 63.8269 77.659 56.2102 76.3116C51.528 75.4734 47.4744 72.7199 44.1228 68.1293C39.8224 62.2541 35.4927 56.3984 31.1806 50.5232C30.599 49.7281 29.9733 49.117 29.145 48.9721C28.4514 48.8441 27.7455 49.0196 27.1331 49.4724C26.5208 49.9251 26.0352 50.6306 25.7493 51.4828C25.1971 53.0339 25.2764 54.8082 26.4837 56.418C31.2863 62.822 36.0449 69.2887 40.8505 75.6967C41.6759 76.7973 42.563 77.8196 43.4971 78.7361C47.0015 82.1829 50.964 84.1022 55.2468 84.8777C58.613 85.4692 61.947 85.3477 65.2516 84.3254C71.5699 82.4062 76.8015 78.0428 80.9168 71.2902C84.2852 65.8072 86.4227 59.1661 87.0824 52.133C87.5067 48.0289 87.4244 43.8597 86.8386 39.7911C85.8751 33.1599 83.8101 27.2259 80.4909 22.1653C74.1578 12.5143 66.1857 8.20968 56.7008 9.1693C53.0752 9.57769 49.553 10.9876 46.3582 13.3094C44.6034 14.5381 42.9562 16.0225 41.4468 17.7354L41.4321 17.7393ZM39.1233 85.0618C38.9853 84.8973 38.8619 84.7367 38.7268 84.5722C36.7675 82.0615 34.7936 79.5547 32.852 77.0049C32.6943 76.7717 32.5004 76.5872 32.2838 76.4641C32.0672 76.341 31.833 76.2823 31.5977 76.292C29.6238 76.3547 27.6645 76.3743 25.7229 75.7828C16.0852 72.8256 10.4836 58.6075 14.0349 46.1011C16.8343 36.2463 24.592 30.2497 32.241 32.0867C35.6689 32.9249 38.6827 34.9029 41.159 38.3497C44.1727 42.572 47.2629 46.6534 50.3237 50.8365C51.011 51.7766 51.8071 52.2231 52.7705 52.039C53.9954 51.7922 54.9883 50.9971 55.4318 49.3442C55.8754 47.7109 55.6609 46.1833 54.7592 44.9378C51.5603 40.5509 48.4408 36.0427 45.1215 31.8399C38.6651 23.6812 31.0631 21.2527 22.6474 24.7191C11.3413 29.3919 4.71748 45.2198 7.3024 60.848C9.6582 75.1091 18.8523 85.0853 29.5944 85.1049H38.6064C38.7444 85.1049 38.8972 85.0853 39.1263 85.0657L39.1233 85.0618Z" fill="#C5C7D1"/>
</svg>
