<svg width="650" height="650" viewBox="0 0 650 650" fill="none" xmlns="http://www.w3.org/2000/svg">
<path d="M556.63 361.78C507 260.33 365.07 111.78 180.63 111.35C-11.83 110.95 -30.44 301.83 73.29 354.88C177.02 407.93 25.35 474.08 133.78 540.53C243.52 607.79 478.05 601.47 535.78 549.15C593.51 496.83 578.07 405.61 556.63 361.78Z" fill="url(#paint0_linear)"/>
<path d="M483.37 100.6H183.02V180.64H483.37V100.6Z" fill="#1F1844"/>
<path d="M521.25 180.64H483.37V391.38H521.25V180.64Z" fill="url(#paint1_linear)"/>
<path d="M521.25 100.6H483.37V180.64H521.25V100.6Z" fill="url(#paint2_linear)"/>
<path d="M483.37 180.64H183.02V391.38H483.37V180.64Z" fill="url(#paint3_linear)"/>
<path d="M183 180.64C183 180.64 179.92 360 137.5 391.37H425.2C425.2 391.37 483.37 348.37 483.37 180.63L183 180.64Z" fill="white"/>
<path d="M204.67 231.75C204.67 231.75 455.78 234.99 459.03 231.75" stroke="url(#paint4_linear)" stroke-width="1.8" stroke-miterlimit="10"/>
<path d="M193.14 290.41C193.14 290.41 444.25 293.65 447.5 290.41" stroke="url(#paint5_linear)" stroke-width="1.8" stroke-miterlimit="10"/>
<path d="M176.62 349.07C176.62 349.07 427.73 352.31 430.98 349.07" stroke="url(#paint6_linear)" stroke-width="1.8" stroke-miterlimit="10"/>
<path d="M272.31 198.06C272.31 198.06 268.25 349.42 241.19 374.61" stroke="url(#paint7_linear)" stroke-width="1.8" stroke-miterlimit="10"/>
<path d="M376.63 198.06C376.63 198.06 380.55 315.6 345.37 374.61" stroke="url(#paint8_linear)" stroke-width="1.8" stroke-miterlimit="10"/>
<path d="M303.8 257.65L317.8 277.89C318.083 278.3 318.462 278.636 318.904 278.868C319.345 279.1 319.836 279.221 320.335 279.221C320.834 279.221 321.325 279.1 321.767 278.868C322.208 278.636 322.587 278.3 322.87 277.89L347.56 242.31" stroke="#1F1844" stroke-width="7.22" stroke-miterlimit="10" stroke-linecap="round"/>
<path d="M230.165 223.03H225.451V210.125L225.497 208.005L225.573 205.686C224.79 206.469 224.246 206.983 223.941 207.227L221.379 209.286L219.106 206.449L226.29 200.729H230.165V223.03ZM244.473 208.783C246.629 208.783 248.342 209.388 249.614 210.598C250.895 211.808 251.536 213.466 251.536 215.571C251.536 218.062 250.768 219.979 249.232 221.322C247.697 222.664 245.5 223.335 242.643 223.335C240.161 223.335 238.158 222.933 236.632 222.13V218.057C237.436 218.484 238.371 218.835 239.439 219.11C240.507 219.374 241.519 219.506 242.475 219.506C245.353 219.506 246.792 218.327 246.792 215.967C246.792 213.72 245.302 212.596 242.322 212.596C241.783 212.596 241.188 212.652 240.537 212.764C239.887 212.866 239.358 212.978 238.951 213.1L237.075 212.093L237.914 200.729H250.01V204.725H242.048L241.636 209.103L242.17 208.996C242.79 208.854 243.558 208.783 244.473 208.783Z" fill="#1F1844"/>
<path d="M229.08 185.49C215.25 186.09 204.59 223.27 223.82 227.73C243.05 232.19 262.91 222.32 260.5 208.19C258.09 194.06 245.5 188.65 245.5 188.65" stroke="#D5527E" stroke-width="2.71" stroke-miterlimit="10" stroke-linecap="round"/>
<path d="M525.35 533.46L520.73 545.92L522.5 558.79L525.96 561.86L540.46 557.51L544.02 552L540.31 532.48L525.35 533.46Z" fill="url(#paint9_linear)"/>
<path d="M578.42 535.07L573.65 543.89L571.75 558.32L576.59 563.42L591.41 560.32L595.44 555.14L593.41 535.37L578.42 535.07Z" fill="url(#paint10_linear)"/>
<path d="M605.48 146.09C606.91 143.85 609.03 137.55 609.96 135.64C606.6 135.23 602.49 139.35 601.73 142.28C602.61 142.39 604.73 145.22 605.48 146.09Z" fill="url(#paint11_linear)"/>
<path d="M576.91 207.69C567.34 206.79 558.91 193.06 558.91 193.06C558.722 189.919 558.722 186.771 558.91 183.63L561.85 178.03L564.37 178.74L564.54 176.89C563.79 176.8 568.47 177.72 567.54 177.49C560.99 175.82 551 170.4 548.91 159.29C547.44 151.55 551.02 144.96 551.59 140.57C552.16 136.18 550.73 132.84 550.5 127.82C550.21 121.39 553.67 113.82 557 112.29C572 105.5 596.36 116.29 596.36 116.29C596.36 116.29 604.36 121.05 598.96 138.29C599.9 137.81 597.74 141.35 598.96 141.29C600.021 141.147 601.099 141.231 602.125 141.536C603.151 141.841 604.1 142.361 604.91 143.06C607.82 145.9 607.15 151.91 599.91 159.45L599.66 159.72C599.257 161.366 598.959 163.036 598.77 164.72C598.77 164.97 598.7 165.23 598.67 165.5C598.29 168.6 597.79 172.61 597.31 176.5C596.63 182.1 596.25 186.95 596.08 188.83C595.59 193.36 586.49 208.59 576.91 207.69Z" fill="url(#paint12_linear)"/>
<path d="M598.93 138.33C604.36 121.06 596.33 116.33 596.33 116.33C596.33 116.33 571.93 105.53 556.97 112.33C554.62 113.38 553.85 116.76 552.97 119.62C559.08 115.82 570.15 119.01 579.04 120.36C583.29 121.01 580.82 125.36 581.99 125.7C591.66 125.15 597.3 130.7 593.99 143.82L598.8 141.32C597.85 141.15 599.83 137.87 598.93 138.33Z" fill="url(#paint13_linear)"/>
<path d="M610.6 134.71C611.52 131.71 611.77 128.28 611.91 123.61C612.21 113.54 606.91 107.9 597.34 103.51L588.1 99.92C587.26 99.59 571.59 94.27 563.01 96.7C559.79 97.61 555.09 100.65 554.44 103.32C552.78 110.14 551.7 113.73 551.92 119.32C558.8 106.27 561.92 124.47 583.06 114.84C586.97 113.05 584.85 119.84 586 120.17C596.91 119.55 602.71 126.64 596.28 143.71C599.28 142.84 601.4 141.71 603.04 141.88C605.69 139.9 610.12 136.3 610.6 134.71Z" fill="#1F1844"/>
<path d="M598.62 165.48C589.38 177.48 575.7 180.91 567.34 181.66L564.58 179.66C563.83 179.57 568.44 177.73 567.51 177.5C573.76 174.43 591.21 165.7 599.87 159.5L599.62 159.77C599.217 161.416 598.919 163.086 598.73 164.77C598.69 165 598.65 165.22 598.62 165.48Z" fill="url(#paint14_linear)"/>
<path d="M598.28 143.38C598.68 143.11 599.88 142.49 599.88 142.49L599.98 139.06L594.61 140.92C594.103 141.095 593.655 141.41 593.317 141.827C592.98 142.244 592.766 142.747 592.7 143.28L591.24 155.19C583.89 157.43 566.53 164.83 563.68 164.57C560.07 164.25 560.03 159.57 557.9 160.13C555.77 160.69 555.37 163.33 554.07 162.99C553.39 162.81 549.69 158.89 548.73 156.65C548.73 156.65 549.07 164.58 549.21 166C549.55 169.28 554.5 177 554.5 177C554.741 177.417 555.075 177.774 555.475 178.043C555.876 178.312 556.332 178.485 556.81 178.55L565.25 179.69L570.03 178.21C576.62 176.41 593.27 166.87 593.79 165.11C596.77 154.81 594.24 146.09 598.28 143.38Z" fill="#1F1844"/>
<path d="M598.88 147C598.88 147 601.62 144 603.01 146.69C604.4 149.38 601.29 153.29 601.29 153.29L598.88 147Z" fill="url(#paint15_linear)"/>
<path d="M596.87 557.9C596.87 557.9 601.27 559.79 592.87 579.19C590.87 583.72 582.04 586.41 573.38 586.19C564.72 585.97 560.99 584.63 560.38 582.19C559.77 579.75 565 572 565 572L596.87 557.9Z" fill="#1F1844"/>
<path d="M596.79 556C596.79 556 596.87 551.88 595 550.93C594.13 555.8 591.77 552.02 589.1 549.27C586.78 546.9 585.86 544.94 581.43 544.59C577 544.24 575.61 547.84 573.76 549.27C570.48 551.8 570.41 550.27 569.36 554.02C568.43 557.3 565.58 569.27 563.04 574.09C562.739 574.62 562.616 575.233 562.69 575.838C562.763 576.443 563.03 577.008 563.45 577.45C567.56 581.5 576.85 580.03 581.94 579.18C587.71 578.18 592.94 574.62 595.17 566.92C597.4 559.22 596.79 556 596.79 556Z" fill="url(#paint16_linear)"/>
<path d="M546 561.19V566.74C545.991 567.692 545.643 568.61 545.018 569.329C544.393 570.048 543.532 570.52 542.59 570.66C538.7 571.2 532.42 572.11 529.02 572.78C523.84 573.78 511.47 578.29 504.49 578.78C497.51 579.27 489.64 579.34 486.15 577.09C482.66 574.84 483.45 569.55 483.45 569.55L546 561.19Z" fill="#1F1844"/>
<path d="M544 546.35C544 546.35 547.6 560.08 545.58 562.1C543.56 564.12 528.37 565.1 524.32 567.73C520.27 570.36 503.73 574.37 494.96 573.73C486.19 573.09 483.71 571.93 483.48 569.57C483.25 567.21 500.92 563.94 504.07 561.57C507.22 559.2 509.13 550.88 513.52 548.07C517.91 545.26 514.52 540.19 519.15 539.97C523.78 539.75 522.53 547.17 529.39 547.62C534.293 547.779 539.198 547.352 544 546.35Z" fill="url(#paint17_linear)"/>
<path d="M611 298.19L566.08 309L542.17 304.64C542.17 304.64 506.17 407.12 503.75 418.76C501.33 430.4 521 538 521 538H544.77C544.77 538 547.2 507.44 544.77 479.8C542.34 452.16 537.77 437.61 537.77 431.8C537.77 425.99 569.55 364.86 569.55 364.86C569.55 364.86 577.02 401.31 579.95 427.43C585.11 473.51 570.95 541.43 570.95 541.43H597.59C597.59 541.43 607.4 522.8 615.64 477.7C623.88 432.6 607.23 434.47 616.54 398.35C631.32 340.56 611 298.19 611 298.19Z" fill="#1F1844"/>
<path d="M605.87 178.64C605.87 180.46 604.17 194.76 601.09 191.55C599.01 189.37 592.02 188.28 587.46 187.8C591.6 182.58 599.82 168.5 599.82 168.5C599.82 168.5 605.87 177 605.87 178.64Z" fill="url(#paint18_linear)"/>
<path d="M583.66 280C582.91 281.21 565.83 287.74 564.82 288.27C562.96 289.27 545.46 290.6 536.14 291V290.27C536.14 290.27 522.64 290.48 517.14 285.21C511.64 279.94 511.02 276.14 513.56 265.6C516.1 255.06 529.16 205.08 531.06 201.91C532.96 198.74 536.96 191.16 542.06 189.68C545.286 188.629 548.42 187.314 551.43 185.75C550.78 186.48 550.32 187.1 550.34 187.42C550.39 188.21 548.55 190.16 548.65 190.69C548.75 191.22 547.86 192.9 547.55 193.9C547.126 195.035 546.86 196.223 546.76 197.43C546.66 199.01 547.29 199.8 549.45 204.28C551.61 208.76 554.3 213.72 554.3 213.72L558.38 225.83L558.9 225.42C559.3 227.78 560.2 232.6 561.49 239.94C563.11 249.15 568.08 260.94 573.16 269.13C572.78 269.36 583.66 280 583.66 280Z" fill="url(#paint19_linear)"/>
<path d="M634.21 218.68C634.15 219.56 634.077 220.46 633.99 221.38C632.72 235.02 625.42 249.64 623.59 260.74C621.76 271.84 617.34 313.25 617.34 313.25C617.34 313.25 569.65 322.17 555.56 318.48C541.47 314.79 536.17 308.93 536.17 308.93V291C545.49 290.6 562.99 289.25 564.85 288.27C565.988 287.504 566.924 286.475 567.58 285.27L581.16 280.53C583.81 283.33 586.57 284.98 590.43 285.21C597.6 285.63 613.77 264.54 617.14 257.09C619.33 252.22 628.28 232 634.21 218.68Z" fill="url(#paint20_linear)"/>
<path d="M572 183.25C570.859 182.565 569.844 181.689 569 180.66C568.49 179.91 567.93 179.5 567.37 179.88C566.44 179.13 564.53 177.73 563.14 177.65C561.24 177.54 559.77 176.28 558.45 177.23C557.13 178.18 556.5 181.34 556.5 181.34C556.5 181.34 555.6 180.71 554.39 182.34C553.66 183.34 552.32 184.65 551.39 185.74C550.74 186.47 550.28 187.09 550.3 187.41C550.35 188.2 548.51 190.15 548.61 190.68C548.71 191.21 547.82 192.89 547.51 193.89C547.086 195.025 546.82 196.213 546.72 197.42C546.62 199 547.25 199.79 549.41 204.27C551.57 208.75 554.26 213.71 554.26 213.71L558.34 225.82L558.86 225.41L570.86 215.95C569.68 213.34 568.11 209.19 569.53 208.15C571.64 206.61 572.9 197.89 572.9 197.89L573.16 197.72C573.16 195.81 573.09 192.81 573.21 190.61C573.47 187.15 572.52 183.46 572 183.25ZM567.15 189.1C566.83 190.31 566.68 192.1 565.36 191.1C563.939 189.873 562.697 188.452 561.67 186.88C561.67 186.67 561.72 183.4 561.67 182.97C561.62 182.54 561.2 181.6 562.04 181.65C563.43 181.974 564.799 182.381 566.14 182.87C566.219 183.135 566.313 183.395 566.42 183.65C567.51 186.36 567.46 187.89 567.14 189.1H567.15Z" fill="url(#paint21_linear)"/>
<path d="M584.62 275.72L571 280.46L568.17 281.46C568.17 281.46 566.8 275.34 567.33 271.55C567.66 269.19 575.16 262.72 575.61 262.7C576.06 263.41 576.95 265.54 577.41 266.21C579.595 269.539 582.004 272.717 584.62 275.72Z" fill="url(#paint22_linear)"/>
<path d="M542.17 264.75L543.53 242.82L538.07 267.15C538.07 267.15 542.68 268.15 543.21 268.34C543.74 268.53 555.65 270.34 560.08 270.03C562.44 269.87 541.73 270.47 566.57 268.38L542.17 264.75Z" fill="url(#paint23_linear)"/>
<path d="M631.46 196.08C629.46 193.27 624.46 189.33 618.95 186.08C614.95 183.73 608.89 180.33 605.88 178.66C605.88 180.48 604.18 194.78 601.1 191.57C599.02 189.39 592.03 188.3 587.47 187.82C586.986 188.487 586.414 189.086 585.77 189.6L573.23 197.73L572.97 197.9C572.97 197.9 571.7 206.62 569.6 208.16C568.18 209.16 569.75 213.35 570.93 215.96L558.93 225.42C559.33 227.78 560.23 232.6 561.52 239.94C563.388 249.948 567.014 259.547 572.23 268.29L572.63 268.94C573.05 269.647 573.507 270.333 574 271C576.172 274.332 578.568 277.512 581.17 280.52C583.82 283.32 586.58 284.97 590.44 285.2C597.61 285.62 613.78 264.53 617.15 257.08C619.36 252.2 628.31 232.03 634.24 218.67C635 206.57 633.29 198.7 631.46 196.08Z" fill="url(#paint24_linear)"/>
<path d="M599.44 245.51C599.44 245.51 600.71 247.41 599.75 248.51C598.79 249.61 596.49 251.62 596.49 251.62C596.49 251.62 590.38 246.81 588.16 242.49C589.032 241.539 589.778 240.481 590.38 239.34C590.95 238.124 591.756 237.033 592.75 236.13C593.12 235.92 595.49 233.81 596.33 234.13C597.17 234.45 596.57 236.84 596.55 236.92C596.72 236.79 600.42 233.92 601.55 235.92C601.857 236.567 601.97 237.289 601.876 237.998C601.782 238.708 601.485 239.376 601.02 239.92C601.02 239.92 602.76 239.6 602.97 241.13C603.18 242.66 599.44 245.51 599.44 245.51Z" fill="url(#paint25_linear)"/>
<path d="M570.93 215.97L586.96 241.6L589.36 238.37L570.93 215.97Z" fill="url(#paint26_linear)"/>
<path d="M157.78 164.1C164.68 179.22 155.11 193.68 151.05 196.16C144.83 199.97 140.64 199.52 137.62 204.97C135.62 208.54 136.83 213.19 138.24 218.72C136.367 218.425 134.476 218.268 132.58 218.25C124.084 218.108 115.597 218.889 107.27 220.58L110.14 204C111.26 204.19 115.29 204.89 116.23 204.93C121.98 205.24 132.23 203.72 131.51 197.66C130.79 191.6 135.8 192.82 139.64 188.58C143.48 184.34 144.08 182.22 141.64 176.47C139.2 170.72 138.92 170.71 141.94 167.99C144.023 165.95 145.763 163.586 147.09 160.99C148.91 164.93 149.81 170.38 152.85 169.16C155.89 167.94 155.76 163.86 157.78 164.1Z" fill="url(#paint27_linear)"/>
<path d="M167.4 154.68C163.77 159.22 164.68 158.62 163.16 161.04C161.64 163.46 159.83 164.37 157.8 164.11C155.8 163.87 155.89 168.01 152.88 169.22C149.87 170.43 148.94 164.99 147.12 161.05C145.793 163.646 144.053 166.01 141.97 168.05C138.97 170.77 139.25 170.77 141.67 176.53C144.09 182.29 143.49 184.39 139.67 188.64C135.85 192.89 130.79 191.64 131.54 197.72C132.29 203.8 122 205.3 116.26 204.99C115.217 204.928 114.179 204.804 113.15 204.62C107.48 203.69 100.21 201.41 97.15 201.62C93.52 201.92 86.86 198.29 85.04 193.43C83.22 188.57 78.68 188 76 185.87C73.32 183.74 74.18 179.81 75.39 173.15C76.6 166.49 71.76 167.7 68.12 165.57C64.48 163.44 69.03 159.82 72.36 153.46C75.69 147.1 68.12 148.31 68.12 143.16C68.12 138.01 72.66 138.02 76.29 136.8C79.92 135.58 78.41 128.33 81.74 122.57C85.07 116.81 93.55 122.27 93.25 115.57C92.95 108.87 95.07 109.82 99.61 108.3C104.15 106.78 102.52 108.36 107.31 102.96C113.31 96.19 119.25 104.84 128.64 104.54C138.03 104.24 135.64 103.16 141.09 104.98C146.54 106.8 149.28 115.27 151.09 118.3C152.9 121.33 160.47 121.3 161.99 123.75C163.51 126.2 162.9 133.13 165.32 136.15C167.74 139.17 170.77 139.79 167.44 142.82C164.11 145.85 171 150.14 167.4 154.68Z" fill="url(#paint28_linear)"/>
<path d="M88 283.54C88 283.54 42.6 287.64 39.82 280.21C37.91 275.05 39.18 267.04 45.12 256.92L68 270.68L76 264.21L88 283.54Z" fill="url(#paint29_linear)"/>
<path d="M142.41 497.12C141.8 513.95 134.65 549.9 132.87 560.43L132.48 562.76C132.48 562.76 121.78 564.01 117.78 561.76C117.72 561.76 118.63 562.16 118.6 562.14C107.51 505.71 117.08 471.44 113.26 455.69C111.07 446.57 109.43 437.69 108.32 430.95C118.89 432.48 130.95 432.95 141.66 433.15C141.77 436.67 140.6 441.29 140.1 443.57C139.17 447.76 143.11 477.93 142.41 497.12Z" fill="url(#paint30_linear)"/>
<path d="M229.13 181.89C227.41 182.21 232.13 194.11 231.94 195.89L233.68 199.47L235.57 200.42C236.08 199.71 236.2 199.06 236.57 198.54L236.36 194.34C236.1 193.91 230.78 181.59 229.13 181.89Z" fill="#D5527E"/>
<path d="M244.78 206C244.78 203.43 244.94 203.22 243.56 202.33C244.04 198.9 241.71 198.91 241.71 198.91C241.71 198.91 243.34 196.23 242.32 194.57C241.49 193.28 238.41 193.91 237.04 194.25L236.37 194.44V194.36L236.58 198.56C236.74 198.31 233.67 204.56 232.69 203.95C231.71 203.34 233.69 199.49 233.69 199.49L231.63 194C231.63 194.09 230.49 196 230.47 196.06C230.138 197.995 229.461 199.855 228.47 201.55C227.55 203.16 228.27 204.77 224.93 209.46C221.59 214.15 219.59 226.8 219.59 226.8C219.59 226.8 187.59 261.92 169.43 276.24C165.52 279.33 182.92 293.06 186.19 291.11C195.36 285.62 228.93 237.54 228.93 237.54C228.93 237.54 239.12 224.74 242.22 218.4C244.237 214.595 245.126 210.293 244.78 206Z" fill="url(#paint31_linear)"/>
<path d="M177.52 289.22C182.83 280.33 182.61 275.59 184.08 264.43C175.08 252.43 154.74 227.06 145.5 220.59C143.5 217.85 129.74 215.76 108 213.65C96.6934 212.543 85.3533 215.399 75.92 221.73C67.57 227.34 58.4 234.17 53.78 241.1C49.16 248.03 45.78 253.3 43.16 257.74L68 270.68L76 264.21C76.55 267.98 87.84 291.75 82.1 310.34C76.55 328.34 57.75 346.06 53.62 427.34C62.03 427.93 73.76 430.15 87.09 432.52C93.8 433.71 132.09 433.87 143.8 433.86C164.65 340.67 140.38 317.95 138.99 302.25C138.41 295.7 141.73 284.7 145.8 274.09C149.8 276.41 167.28 286.38 177.52 289.22Z" fill="url(#paint32_linear)"/>
<path d="M87.15 432.56C85.51 436.86 82.69 446.08 78.39 450.56C72.09 457.14 47 535.13 45 545.81C45 545.81 44.92 546.5 44.89 546.67C35.99 540.81 34.89 540.2 28.45 544.67C28.23 544.86 29.67 543.72 29.45 543.92C32.92 524.51 33.36 484.69 37.27 469.44C41.18 454.19 50.15 442 52.48 439.48C53.48 438.37 54.37 431.31 55.06 427.48C63.35 428.2 74.53 430.31 87.15 432.56Z" fill="url(#paint33_linear)"/>
<path d="M42.44 597.53H28.8C28.8 597.53 20.26 595.78 19.34 587.71C18.42 579.64 21.42 574.71 21.17 570.24C21 566.83 19.23 558.18 23.64 554.68C25 553.58 27.05 553 30 553.27C36.32 553.88 41.2 556.85 41 565.53C40.75 573.93 42.3 580.62 44.6 585.11C44.66 585.25 44.74 585.36 44.79 585.5C47.19 590 45.55 597.53 42.44 597.53Z" fill="#2D1582"/>
<path d="M47.63 559.15C47.55 562.56 45.55 577.87 44.55 585.15C42.25 580.66 40.7 573.97 40.95 565.57C41.17 556.89 36.29 553.92 29.95 553.31C27.04 553.03 25.01 553.62 23.63 554.72L28.4 544.72C34.89 539.53 36.64 540.37 45.82 547.49C45.88 547.25 47.74 555.1 47.63 559.15Z" fill="#2D1582"/>
<path d="M140.92 584.11C140.81 584.33 140.61 584.69 140.39 585.11C134.07 587.97 128.85 588.6 120.81 588.41C116.57 588.3 113.96 587 112.35 585.66C112.96 579.66 116.51 564.28 117.79 561.79C121.79 564.01 132.49 562.79 132.49 562.79L132.88 560.46C134.18 562.6 136.98 574.68 138.95 575.4C141.61 576.32 141.5 583.08 140.92 584.11Z" fill="#2D1582"/>
<defs>
<linearGradient id="paint0_linear" x1="10.8" y1="350.51" x2="575.92" y2="350.51" gradientUnits="userSpaceOnUse">
<stop stop-color="#F0F2F5"/>
<stop offset="0.99" stop-color="#F5F7F8"/>
</linearGradient>
<linearGradient id="paint1_linear" x1="483.37" y1="286.01" x2="521.26" y2="286.01" gradientUnits="userSpaceOnUse">
<stop offset="0.01" stop-color="#BBBFD9"/>
<stop offset="1" stop-color="#D6DBF8"/>
</linearGradient>
<linearGradient id="paint2_linear" x1="483.37" y1="140.62" x2="521.26" y2="140.62" gradientUnits="userSpaceOnUse">
<stop stop-color="#A7A5EE"/>
<stop offset="0.44" stop-color="#9D9CE8"/>
<stop offset="0.89" stop-color="#8988D5"/>
</linearGradient>
<linearGradient id="paint3_linear" x1="55153.1" y1="60454.4" x2="145363" y2="60454.4" gradientUnits="userSpaceOnUse">
<stop offset="0.01" stop-color="#BBBFD9"/>
<stop offset="1" stop-color="#D6DBF8"/>
</linearGradient>
<linearGradient id="paint4_linear" x1="52259.4" y1="566.507" x2="117124" y2="566.507" gradientUnits="userSpaceOnUse">
<stop offset="0.01" stop-color="#BBBFD9"/>
<stop offset="1" stop-color="#D6DBF8"/>
</linearGradient>
<linearGradient id="paint5_linear" x1="49317.7" y1="709.637" x2="114182" y2="709.637" gradientUnits="userSpaceOnUse">
<stop offset="0.01" stop-color="#BBBFD9"/>
<stop offset="1" stop-color="#D6DBF8"/>
</linearGradient>
<linearGradient id="paint6_linear" x1="45099.1" y1="852.768" x2="109961" y2="852.768" gradientUnits="userSpaceOnUse">
<stop offset="0.01" stop-color="#BBBFD9"/>
<stop offset="1" stop-color="#D6DBF8"/>
</linearGradient>
<linearGradient id="paint7_linear" x1="7728.04" y1="50807.9" x2="8743.48" y2="50807.9" gradientUnits="userSpaceOnUse">
<stop offset="0.01" stop-color="#BBBFD9"/>
<stop offset="1" stop-color="#D6DBF8"/>
</linearGradient>
<linearGradient id="paint8_linear" x1="11162.4" y1="50788.5" x2="12200.5" y2="50788.5" gradientUnits="userSpaceOnUse">
<stop offset="0.01" stop-color="#BBBFD9"/>
<stop offset="1" stop-color="#D6DBF8"/>
</linearGradient>
<linearGradient id="paint9_linear" x1="527.707" y1="562.014" x2="538.379" y2="532.003" gradientUnits="userSpaceOnUse">
<stop stop-color="#753200"/>
<stop offset="1" stop-color="#A04400"/>
</linearGradient>
<linearGradient id="paint10_linear" x1="-19046.6" y1="7394.1" x2="-18756.9" y2="6583.92" gradientUnits="userSpaceOnUse">
<stop stop-color="#753200"/>
<stop offset="1" stop-color="#A04400"/>
</linearGradient>
<linearGradient id="paint11_linear" x1="-257.04" y1="4700.09" x2="-206.944" y2="4713.14" gradientUnits="userSpaceOnUse">
<stop stop-color="#753200"/>
<stop offset="1" stop-color="#A04400"/>
</linearGradient>
<linearGradient id="paint12_linear" x1="-17612.4" y1="47981.3" x2="-14200.6" y2="47734.5" gradientUnits="userSpaceOnUse">
<stop stop-color="#753200"/>
<stop offset="1" stop-color="#A04400"/>
</linearGradient>
<linearGradient id="paint13_linear" x1="568.358" y1="130.36" x2="599.574" y2="120.056" gradientUnits="userSpaceOnUse">
<stop stop-color="#A04400" stop-opacity="0"/>
<stop offset="0.18" stop-color="#9A4100" stop-opacity="0.14"/>
<stop offset="0.52" stop-color="#8A3B00" stop-opacity="0.52"/>
<stop offset="0.9" stop-color="#753200"/>
</linearGradient>
<linearGradient id="paint14_linear" x1="598.746" y1="164.254" x2="566.484" y2="182.78" gradientUnits="userSpaceOnUse">
<stop stop-color="#A04400"/>
<stop offset="1" stop-color="#753200"/>
</linearGradient>
<linearGradient id="paint15_linear" x1="207.045" y1="3544.29" x2="184.032" y2="3550.53" gradientUnits="userSpaceOnUse">
<stop stop-color="#753200"/>
<stop offset="1" stop-color="#A04400"/>
</linearGradient>
<linearGradient id="paint16_linear" x1="1378.7" y1="20556.5" x2="209.829" y2="20556.5" gradientUnits="userSpaceOnUse">
<stop stop-color="#A7A5EE"/>
<stop offset="0.44" stop-color="#9D9CE8"/>
<stop offset="0.89" stop-color="#8988D5"/>
</linearGradient>
<linearGradient id="paint17_linear" x1="-567.454" y1="19379.5" x2="-4501.1" y2="19379.5" gradientUnits="userSpaceOnUse">
<stop stop-color="#A7A5EE"/>
<stop offset="0.44" stop-color="#9D9CE8"/>
<stop offset="0.89" stop-color="#8988D5"/>
</linearGradient>
<linearGradient id="paint18_linear" x1="587.47" y1="180.29" x2="605.87" y2="180.29" gradientUnits="userSpaceOnUse">
<stop offset="0.11" stop-color="#8988D5"/>
<stop offset="0.56" stop-color="#9D9CE8"/>
<stop offset="1" stop-color="#A7A5EE"/>
</linearGradient>
<linearGradient id="paint19_linear" x1="37148.6" y1="25274.2" x2="42264" y2="25274.2" gradientUnits="userSpaceOnUse">
<stop stop-color="#A7A5EE"/>
<stop offset="0.44" stop-color="#9D9CE8"/>
<stop offset="0.89" stop-color="#8988D5"/>
</linearGradient>
<linearGradient id="paint20_linear" x1="53099.4" y1="27308.5" x2="62714.1" y2="27308.5" gradientUnits="userSpaceOnUse">
<stop stop-color="#A7A5EE"/>
<stop offset="0.44" stop-color="#9D9CE8"/>
<stop offset="0.89" stop-color="#8988D5"/>
</linearGradient>
<linearGradient id="paint21_linear" x1="15059.3" y1="10031.9" x2="15764.8" y2="10031.9" gradientUnits="userSpaceOnUse">
<stop stop-color="#753200"/>
<stop offset="1" stop-color="#A04400"/>
</linearGradient>
<linearGradient id="paint22_linear" x1="10443.7" y1="5366.73" x2="10746.5" y2="5366.73" gradientUnits="userSpaceOnUse">
<stop stop-color="#753200"/>
<stop offset="1" stop-color="#A04400"/>
</linearGradient>
<linearGradient id="paint23_linear" x1="15873.1" y1="7229.68" x2="16685.3" y2="7229.68" gradientUnits="userSpaceOnUse">
<stop stop-color="#A7A5EE"/>
<stop offset="0.44" stop-color="#9D9CE8"/>
<stop offset="0.89" stop-color="#8988D5"/>
</linearGradient>
<linearGradient id="paint24_linear" x1="42751.6" y1="24892.1" x2="48453.7" y2="24892.1" gradientUnits="userSpaceOnUse">
<stop stop-color="#A7A5EE"/>
<stop offset="0.44" stop-color="#9D9CE8"/>
<stop offset="0.89" stop-color="#8988D5"/>
</linearGradient>
<linearGradient id="paint25_linear" x1="9303.82" y1="4489.02" x2="9522.69" y2="4489.02" gradientUnits="userSpaceOnUse">
<stop stop-color="#753200"/>
<stop offset="1" stop-color="#A04400"/>
</linearGradient>
<linearGradient id="paint26_linear" x1="11093.2" y1="6079.86" x2="11432.8" y2="6079.86" gradientUnits="userSpaceOnUse">
<stop stop-color="#A7A5EE"/>
<stop offset="0.44" stop-color="#9D9CE8"/>
<stop offset="0.89" stop-color="#8988D5"/>
</linearGradient>
<linearGradient id="paint27_linear" x1="5786.19" y1="11531.4" x2="8588.85" y2="11531.4" gradientUnits="userSpaceOnUse">
<stop stop-color="#753200"/>
<stop offset="1" stop-color="#A04400"/>
</linearGradient>
<linearGradient id="paint28_linear" x1="66.74" y1="152.7" x2="168.87" y2="152.7" gradientUnits="userSpaceOnUse">
<stop stop-color="#201F4F"/>
<stop offset="0.26" stop-color="#27275A"/>
<stop offset="0.72" stop-color="#393C76"/>
<stop offset="1" stop-color="#464B8B"/>
</linearGradient>
<linearGradient id="paint29_linear" x1="1948.18" y1="7771.2" x2="4349.37" y2="7771.2" gradientUnits="userSpaceOnUse">
<stop stop-color="#753200"/>
<stop offset="1" stop-color="#A04400"/>
</linearGradient>
<linearGradient id="paint30_linear" x1="3810.37" y1="66119.2" x2="4978.09" y2="66119.2" gradientUnits="userSpaceOnUse">
<stop stop-color="#753200"/>
<stop offset="1" stop-color="#A04400"/>
</linearGradient>
<linearGradient id="paint31_linear" x1="13001.6" y1="23841.8" x2="18773.2" y2="23841.8" gradientUnits="userSpaceOnUse">
<stop stop-color="#753200"/>
<stop offset="1" stop-color="#A04400"/>
</linearGradient>
<linearGradient id="paint32_linear" x1="43.14" y1="323.66" x2="184.08" y2="323.66" gradientUnits="userSpaceOnUse">
<stop offset="0.09" stop-color="#D9D9D9"/>
<stop offset="0.12" stop-color="#D6D6D6"/>
<stop offset="0.7" stop-color="#AEAEAE"/>
<stop offset="1" stop-color="#9F9F9F"/>
</linearGradient>
<linearGradient id="paint33_linear" x1="1695.57" y1="58481.3" x2="5146.13" y2="58481.3" gradientUnits="userSpaceOnUse">
<stop stop-color="#753200"/>
<stop offset="1" stop-color="#A04400"/>
</linearGradient>
</defs>
</svg>
