<svg width="44" height="41" viewBox="0 0 44 41" fill="none" xmlns="http://www.w3.org/2000/svg">
<path d="M17.5333 20.9524C17.963 21.4529 18.6594 21.4529 19.0891 20.9524L19.8667 20.0468C20.2964 19.5463 20.2964 18.7351 19.8667 18.2346L17.4109 15.375L19.866 12.5146C20.2957 12.0141 20.2957 11.2029 19.866 10.7024L19.0884 9.79676C18.6588 9.29627 17.9623 9.29627 17.5326 9.79676L13.5217 14.4685C13.0921 14.969 13.0921 15.7802 13.5217 16.2807L17.5333 20.9524ZM24.134 20.0476L24.9116 20.9532C25.3413 21.4537 26.0377 21.4537 26.4674 20.9532L30.4783 16.2815C30.9079 15.781 30.9079 14.9698 30.4783 14.4693L26.4674 9.79756C26.0377 9.29707 25.3413 9.29707 24.9116 9.79756L24.134 10.7032C23.7043 11.2037 23.7043 12.0149 24.134 12.5154L26.5891 15.375L24.134 18.2354C23.7043 18.7359 23.7043 19.5471 24.134 20.0476ZM42.9 33.3125H26.2309C26.18 34.8988 25.2196 35.875 23.98 35.875H19.8C18.5151 35.875 17.5299 34.476 17.5471 33.3125H1.1C0.495 33.3125 0 33.8891 0 34.5938V35.875C0 38.6937 1.98 41 4.4 41H39.6C42.02 41 44 38.6937 44 35.875V34.5938C44 33.8891 43.505 33.3125 42.9 33.3125ZM39.6 3.84375C39.6 1.72969 38.115 0 36.3 0H7.7C5.885 0 4.4 1.72969 4.4 3.84375V30.75H39.6V3.84375ZM35.2 25.625H8.8V5.125H35.2V25.625Z" fill="white"/>
</svg>
