<svg width="38" height="38" viewBox="0 0 38 38" fill="none" xmlns="http://www.w3.org/2000/svg">
<path d="M19 0C8.5063 0 0 8.5063 0 19C0 29.4937 8.5063 38 19 38C29.4937 38 38 29.4937 38 19C38 8.5063 29.4937 0 19 0ZM19 2.7531C23.1391 2.7531 26.9173 4.3016 29.7863 6.8495C27.6782 9.63015 24.4758 11.4817 21.2667 12.7347C19.4501 9.42623 17.4141 6.24295 15.1725 3.20625C16.4262 2.90405 17.7113 2.75194 19.0009 2.7531H19ZM12.0878 4.2921C14.2063 7.4613 16.2583 10.3996 18.1327 13.7256C13.3921 14.9539 8.0351 15.6912 3.08655 15.7035C4.12965 10.6419 7.5297 6.4391 12.0878 4.29305V4.2921ZM31.5884 8.7286C33.9361 11.5976 35.2276 15.1856 35.2469 18.8926C31.4887 18.1516 27.7514 17.9578 23.9457 18.3416C23.5182 17.2748 22.9995 16.2611 22.5026 15.1686C25.783 13.8453 29.2904 11.5805 31.5884 8.72765V8.7286ZM19.4522 16.2393C19.8588 17.1038 20.33 18.0215 20.7727 18.9592C15.4812 21.2924 9.85245 24.4103 6.9312 29.8766C4.12681 26.7732 2.63226 22.7049 2.7607 18.524C8.42745 18.4974 13.9897 17.7887 19.4522 16.2393ZM28.0383 20.6691C30.4027 20.6697 32.7572 20.973 35.0445 21.5716C34.6919 23.7721 33.8902 25.8764 32.6895 27.7538C31.4888 29.6311 29.9146 31.2414 28.0649 32.4843C27.1928 28.518 26.3615 24.7228 24.8919 20.8962C25.9335 20.7444 26.9847 20.6682 28.0373 20.6682L28.0383 20.6691ZM35.1291 20.9636C35.1177 21.0567 35.1073 21.1479 35.094 21.2392C35.1073 21.147 35.1186 21.0558 35.1291 20.9636ZM21.8861 21.6381C23.3833 25.5075 24.5584 29.792 25.3469 33.9616C23.3398 34.8132 21.1813 35.2507 19.0009 35.2478C15.3889 35.253 11.8791 34.0491 9.0307 31.8278C11.9728 27.055 16.53 23.4431 21.8852 21.6391L21.8861 21.6381Z" fill="#A4A6AF"/>
</svg>
