<svg width="94" height="94" viewBox="0 0 94 94" fill="none" xmlns="http://www.w3.org/2000/svg">
<path d="M93.1372 38.4451H47.9566V56.6327H73.7669C72.654 62.5115 69.2776 67.484 64.1881 70.8154C59.8864 73.6323 54.3967 75.298 47.9441 75.298C35.4516 75.298 24.8849 67.0309 21.1084 55.9223C20.158 53.1054 19.6078 50.0925 19.6078 46.9939C19.6078 43.8952 20.158 40.8823 21.1084 38.0654C24.8974 26.9691 35.4641 18.702 47.9566 18.702C54.9969 18.702 61.312 21.078 66.2889 25.7321L80.0444 12.2476C71.7286 4.65407 60.8868 0 47.9566 0C29.2117 0 12.9927 10.5329 5.10204 25.8913C1.85074 32.2356 0 39.4126 0 47.0061C0 54.5996 1.85074 61.7644 5.10204 68.1087C12.9927 83.4671 29.2117 94 47.9566 94C60.9118 94 71.7661 89.7868 79.6943 82.6098C88.7604 74.4284 94 62.3768 94 48.0594C94 44.7281 93.6999 41.5315 93.1372 38.4451Z" fill="#C5C7D1"/>
</svg>
