<svg width="204" height="94" viewBox="0 0 204 94" fill="none" xmlns="http://www.w3.org/2000/svg">
<path d="M0 87.458H39.6695V93.9805H0V87.458ZM0 74.9403H39.6695V81.4823H0V74.9403ZM11.305 62.4519H28.3305V69.0036H11.305V62.4519ZM11.305 49.9732H28.3305V56.5152H11.305V49.9732ZM11.305 37.475H28.3305V44.0268H11.305V37.475ZM11.305 24.9671H28.3305V31.5189H11.305V24.9671ZM0 12.4884H39.6695V19.0304H0V12.4884ZM0 8.59068e-06H39.6695V6.54203H0V8.59068e-06ZM45.322 81.4823H106.326C107.346 79.4709 108.129 77.2544 108.596 74.9403H45.3305V81.4823H45.322ZM101.575 49.9732H56.6695V56.5152H106.335C105.077 54.0507 103.474 51.8406 101.592 49.9732H101.575ZM56.661 37.475V44.0268H101.584C103.479 42.1911 105.069 39.9844 106.335 37.475H56.661ZM106.326 12.4884H45.322V19.0304H108.587C108.074 16.7499 107.315 14.5522 106.326 12.4884ZM87.5755 8.59068e-06H45.322V6.54203H102.145C98.1789 2.33119 92.9758 -0.00517008 87.5755 8.59068e-06ZM56.661 24.9671H73.661V31.5189H56.661V24.9671ZM90.6695 31.5189H108.451C108.953 29.4293 109.216 27.2226 109.216 24.9671H90.6695V31.5189ZM56.661 62.4519H73.6525V69.0036H56.6525L56.661 62.4519ZM90.6695 62.4519V69.0036H109.216C109.216 66.7579 108.953 64.5414 108.451 62.4519H90.6695ZM45.322 93.9316L87.567 94C93.2365 94 98.345 91.4906 102.161 87.458H45.322V93.9316ZM113.339 87.458H141.661V93.9805H113.339V87.458ZM113.339 74.9403H141.661V81.4823H113.339V74.9403ZM124.652 62.4519H141.653V69.0036H124.652V62.4519ZM124.652 49.9732H141.653V56.5152H124.652V49.9732ZM149.549 12.4884H113.339V19.0304H151.504L149.549 12.4884ZM145.792 8.59068e-06H113.339V6.53226H147.747L145.792 8.59068e-06ZM175.653 87.458H204V93.9805H175.653V87.458ZM175.653 74.9403H204V81.4823H175.653V74.9403ZM175.653 62.4519H192.653V69.0036H175.653V62.4519ZM175.653 49.9732H192.653V56.5152H175.653V49.9732ZM175.653 44.0268H192.653V37.475H160.259L158.661 42.7672L157.063 37.475H124.652V44.0268H141.653V38.0121L143.463 44.0268H173.85L175.653 38.0121V44.0268ZM192.661 24.9671H164.016L162.061 31.5189H192.661V24.9671ZM171.556 8.59068e-06L169.592 6.53226H204V8.59068e-06H171.556ZM158.661 93.9316L160.616 87.458H156.697L158.661 93.9316ZM154.904 81.4823H162.418L164.441 74.9403H152.907L154.904 81.4823ZM151.087 69.0036H166.234L168.232 62.4519H149.081L151.087 69.0036ZM147.279 56.5152H170.051L171.997 49.9732H145.324L147.279 56.5152ZM124.652 31.5189H155.27L153.306 24.9671H124.652V31.5189ZM165.835 19.0304H204V12.4884H167.773L165.835 19.0304Z" fill="#E5E5E5"/>
</svg>
