<svg width="38" height="38" viewBox="0 0 38 38" fill="none" xmlns="http://www.w3.org/2000/svg">
<path d="M22.9395 19.413C22.9395 17.3568 21.2594 15.6837 19.1945 15.6837C17.1298 15.6837 15.4498 17.3569 15.4498 19.413C15.4498 21.4697 17.1298 23.1425 19.1945 23.1425C21.2594 23.1425 22.9395 21.4697 22.9395 19.413ZM28.5032 0H9.49676C4.26024 0 0 4.24295 0 9.45809V12.0934H13.9745C15.4491 11.0473 17.25 10.4293 19.1945 10.4293C21.139 10.4293 22.9402 11.0473 24.4148 12.0934H38V9.45809C38 4.24291 33.7397 0 28.5032 0ZM32.3493 8.99538C32.3493 9.57333 31.8746 10.0463 31.2941 10.0463H28.0338C27.4533 10.0463 26.9786 9.57333 26.9786 8.99538V5.74809C26.9786 5.17017 27.4533 4.69718 28.0338 4.69718H31.2941C31.8746 4.69718 32.3493 5.17009 32.3493 5.74809V8.99538ZM28.2154 19.413C28.2154 24.3671 24.1684 28.3969 19.1945 28.3969C14.2203 28.3969 10.1737 24.3671 10.1737 19.413C10.1737 18.0491 10.4822 16.7557 11.0307 15.5963H0V28.5419C0 33.7574 4.26024 38 9.49676 38H28.5033C33.7398 38 38 33.7574 38 28.5419V15.5963H27.3584C27.9069 16.7557 28.2154 18.0491 28.2154 19.413Z" fill="#A4A6AF"/>
</svg>
