<svg width="686" height="641" viewBox="0 0 686 641" fill="none" xmlns="http://www.w3.org/2000/svg">
<path d="M651.025 315.569C592.957 204.656 426.882 42.2074 211.077 41.7833C-14.0999 41.3494 -35.8831 250.029 85.4862 308.045C206.855 366.06 29.4136 438.345 156.271 510.995C284.669 584.523 559.08 577.62 626.624 520.423C694.169 463.226 676.111 363.496 651.025 315.569Z" fill="url(#paint0_linear)"/>
<path d="M103.734 459.735C103.734 459.735 132.229 430.091 129.211 418.405C126.192 406.72 143.87 392.529 144.218 375.508C144.609 356.228 133.591 361.386 129.77 353.142C124.113 340.923 136.704 330.105 117.675 325.431C104.684 322.236 95.5123 328.468 96.7366 313.449C97.9608 298.43 92.1035 279.841 81.6974 273.096C66.827 263.451 36.5691 262.702 46.7641 282.129C57.4763 302.552 48.0306 336.18 45.5399 345.391C19.1658 442.724 103.734 459.735 103.734 459.735Z" fill="url(#paint1_linear)"/>
<path d="M71.9351 293.115C75.1962 318.242 108.874 358.398 93.6443 385.231C78.4151 412.064 101.528 453.631 101.528 453.631" stroke="url(#paint2_linear)" stroke-width="0.93" stroke-miterlimit="10"/>
<path d="M190.117 403.593C171.606 409.708 191.647 432.083 171.405 442.162C151.163 452.24 125.211 457.349 124.018 452.457C123.934 452.132 122.847 448.887 121.696 444.144C121.433 443.049 121.169 441.866 120.905 440.623C120.842 440.278 120.768 439.923 120.694 439.568C119.938 435.784 119.427 431.961 119.164 428.119C119.164 428.001 119.164 427.882 119.164 427.764C119.069 426.235 119.037 424.697 119.069 423.168C119.1 421.64 119.185 420.21 119.353 418.8C119.955 413.356 121.623 408.337 125.031 404.737C125.904 403.802 126.896 402.97 127.987 402.262C142.055 393.12 147.669 397.558 147.564 384.048C147.374 360.893 154.434 357.422 162.74 359.719C171.046 362.017 177.516 362.678 178.751 354.088C179.985 345.499 172.418 307.384 191.331 307.453C224.048 307.552 207.489 346.525 204.185 352.816C196.27 367.973 212.734 370.35 216.649 381.415C220.565 392.479 208.618 397.479 190.117 403.593Z" fill="url(#paint3_linear)"/>
<path d="M120.388 485.73C120.388 485.73 115.417 443.109 150.181 419.224C165.885 408.435 195.077 369.916 192.397 328.222" stroke="url(#paint4_linear)" stroke-width="2.67" stroke-miterlimit="10"/>
<path d="M71.6501 367.185C75.9877 360.341 107.016 388.545 101.581 394.757C96.1456 400.97 67.5447 373.703 71.6501 367.185Z" fill="url(#paint5_linear)"/>
<path d="M63.8191 405.674C64.4418 397.706 101.918 409.165 99.9977 417.035C98.0769 424.904 63.2281 413.267 63.8191 405.674Z" fill="url(#paint6_linear)"/>
<path d="M134.572 370.508C141.21 375.37 108.441 401.739 102.594 395.891C96.7471 390.044 128.24 365.863 134.572 370.508Z" fill="url(#paint7_linear)"/>
<path d="M131.132 403.731C136.715 409.648 105.064 424.441 100.314 417.764C95.5651 411.088 125.812 398.12 131.132 403.731Z" fill="url(#paint8_linear)"/>
<path d="M66.3098 434.322C64.6739 427.005 105.982 431.216 106.341 438.75C106.699 446.284 67.8718 441.284 66.3098 434.322Z" fill="url(#paint9_linear)"/>
<path d="M129.116 425.802C133.401 432.567 103.786 449.469 100.356 442.083C96.9265 434.697 125.042 419.352 129.116 425.802Z" fill="url(#paint10_linear)"/>
<path d="M112.789 334.306C121.126 334.878 110.34 374.137 102.098 372.322C93.8553 370.508 104.842 333.734 112.789 334.306Z" fill="url(#paint11_linear)"/>
<path d="M74.7846 365.321C79.1011 358.477 110.151 386.7 104.715 392.933C99.2801 399.165 70.7108 371.839 74.7846 365.321Z" fill="url(#paint12_linear)"/>
<path d="M66.3099 404.037C66.9326 396.069 104.409 407.528 102.488 415.398C100.568 423.267 65.7189 411.63 66.3099 404.037Z" fill="url(#paint13_linear)"/>
<path d="M135.828 368.753C142.466 373.614 109.697 399.984 103.85 394.136C98.003 388.288 129.506 364.128 135.828 368.753Z" fill="url(#paint14_linear)"/>
<path d="M120.018 417.281C120.599 411.936 122.192 407.005 125.475 403.475C129.432 402.735 132.757 402.883 134.213 404.461C137.305 407.686 128.905 413.721 120.018 417.281Z" fill="url(#paint15_linear)"/>
<path d="M132.693 402.479C138.276 408.396 106.625 423.188 101.876 416.512C97.127 409.836 127.385 396.868 132.693 402.479Z" fill="url(#paint16_linear)"/>
<path d="M104.325 363.033C104.325 363.033 105.275 383.426 102.383 401.227C99.4911 419.027 106.784 449.154 118.657 458.779" stroke="url(#paint17_linear)" stroke-width="1.55" stroke-miterlimit="10"/>
<path d="M66.3098 432.922C64.6739 425.604 105.982 429.815 106.341 437.349C106.699 444.884 67.8718 439.894 66.3098 432.922Z" fill="url(#paint18_linear)"/>
<path d="M121.528 438.72C121.464 438.385 121.401 438.03 121.327 437.685C120.602 433.967 120.112 430.214 119.86 426.442C119.86 426.324 119.86 426.206 119.86 426.097C126.604 422.606 133.802 420.851 135.691 423.869C138.087 427.655 129.812 434.628 121.528 438.72Z" fill="url(#paint19_linear)"/>
<path d="M134.171 420.969C138.456 427.734 108.842 444.637 105.412 437.251C101.982 429.864 130.097 414.52 134.171 420.969Z" fill="url(#paint20_linear)"/>
<path d="M114.815 333.764C123.153 334.336 112.367 373.594 104.124 371.78C95.8817 369.965 106.868 333.221 114.815 333.764Z" fill="url(#paint21_linear)"/>
<path d="M121.971 522.149H96.2933C90.6936 522.147 85.2848 520.247 81.0709 516.801C76.8571 513.355 74.1246 508.598 73.3809 503.412L67.0486 459.252C66.948 458.548 67.0092 457.833 67.2282 457.153C67.4471 456.473 67.8187 455.845 68.3181 455.31C68.8176 454.775 69.4334 454.346 70.1244 454.052C70.8155 453.757 71.5659 453.603 72.3255 453.601H145.991C146.751 453.603 147.501 453.757 148.192 454.052C148.884 454.346 149.499 454.775 149.999 455.31C150.498 455.845 150.87 456.473 151.089 457.153C151.308 457.833 151.369 458.548 151.268 459.252L144.936 503.412C144.191 508.606 141.451 513.37 137.226 516.817C133.001 520.264 127.58 522.159 121.971 522.149Z" fill="url(#paint22_linear)"/>
<path d="M417.51 73.4191H108.926C102.252 73.4191 96.8422 78.4745 96.8422 84.7106V275.63C96.8422 281.866 102.252 286.921 108.926 286.921H417.51C424.184 286.921 429.594 281.866 429.594 275.63V84.7106C429.594 78.4745 424.184 73.4191 417.51 73.4191Z" fill="url(#paint23_linear)"/>
<path d="M412.909 82.5805H113.528C109.541 82.5805 106.309 85.6005 106.309 89.3258V271.025C106.309 274.75 109.541 277.77 113.528 277.77H412.909C416.896 277.77 420.128 274.75 420.128 271.025V89.3258C420.128 85.6005 416.896 82.5805 412.909 82.5805Z" fill="white"/>
<path d="M449.594 493.077C448.672 493.071 447.762 492.88 446.925 492.517C446.089 492.154 445.345 491.627 444.745 490.973C444.145 490.319 443.702 489.552 443.446 488.724C443.19 487.896 443.127 487.026 443.262 486.174L458.47 380.793L471.071 382.125L455.926 487.88C455.472 490.848 449.594 493.077 449.594 493.077Z" fill="url(#paint24_linear)"/>
<path d="M445.362 460.879L450.987 470.415L463.472 477.969L468.718 477.318L475.789 462.526L473.678 455.781L464.707 451.836L445.362 460.879Z" fill="url(#paint25_linear)"/>
<path d="M515.197 158.771C516.157 155.99 516.706 148.673 517.212 146.385C513.255 146.888 509.825 152.41 509.825 155.753C510.806 155.664 514.078 158.1 515.197 158.771Z" fill="#D5A081"/>
<path d="M461.53 333.241C450.976 334.917 420.698 339.809 412.803 349.02C406.724 356.12 402.249 376.938 391.601 401.374C388.508 394.116 384.582 380.951 382.619 374.058C379.886 364.453 377.342 343.043 400.687 337.491C416.107 333.823 449.889 332.531 461.53 333.241Z" fill="#191337"/>
<path d="M443.103 332.561C443.103 332.561 417.099 335.016 405.342 348.418C396.107 358.95 387.801 391.01 387.801 391.01" stroke="#F3F6FD" stroke-miterlimit="10" stroke-linecap="round"/>
<path d="M562.003 485.306L546.404 377.924L556.958 373.979L574.646 483.215C575.375 487.101 572.177 487.811 569.021 488.343C565.866 488.876 562.742 489.27 562.003 485.306Z" fill="url(#paint26_linear)"/>
<path d="M521.254 498.175L507.914 375.725H520.938L534.204 497.268C534.5 501.045 531.418 500.897 528.378 501.321C525.001 501.834 521.582 502.445 521.254 498.175Z" fill="url(#paint27_linear)"/>
<path d="M569.58 361.504C566.826 380.527 536.864 383.2 502.036 384.255C500.981 384.748 462.501 384.531 444.581 378.89L445.203 250.079C445.203 239.231 450.174 221.254 467.166 220.987C495.661 220.544 548.589 216.481 569.306 222.467C574.045 238.363 577.496 255.917 569.602 301.832C565.074 328.103 570.963 352.373 569.58 361.504Z" fill="url(#paint28_linear)"/>
<path d="M561.729 230.454C568.061 248.205 567.259 258.461 558.826 287.129C544.779 334.908 567.839 359.433 519.112 383.525C548.663 381.947 567.238 377.697 569.581 361.504C570.91 352.372 565.074 328.103 569.581 301.822C575.396 268.007 586.245 240.375 571.818 224.044C567.797 219.528 559.607 224.459 561.729 230.454Z" fill="url(#paint29_linear)"/>
<path d="M386.44 475.74C378.197 472.89 367.179 466.865 367.179 466.865C367.179 466.865 353.459 480.671 351.928 482.022C357.005 483.896 354.451 497.603 358.651 499.773C362.852 501.942 373.965 492.554 379.316 493.698C379.791 489.3 384.994 478.127 386.44 475.74Z" fill="url(#paint30_linear)"/>
<path d="M467.535 453.483L445.372 463.492C442.618 461.52 441.151 456.786 439.219 453.986C435.737 448.947 432.011 449.716 426.217 441.797L411.758 418.78L442.206 375.508L461.857 425.377C463.546 429.431 462.913 440.545 462.913 440.545C464.464 443.838 471.06 452.191 467.535 453.483Z" fill="#191337"/>
<path d="M569.591 269.516C562.151 270.689 539.185 273.549 531.998 270.561C532.748 277.208 533.518 288.992 533.518 288.992C533.518 288.992 472.137 283.519 449.087 291.724C449.087 291.024 449.087 290.196 449.14 289.288C449.425 281.616 450.776 267.79 450.776 267.79C450.776 267.79 439.663 265.818 436.38 262.692C436.163 262.49 435.971 262.265 435.811 262.021C436.317 258.076 441.404 241.558 450.776 228.028C458.681 216.619 469.921 211.431 490.216 208.739L517.138 206.994C517.138 206.994 543.871 204.351 556.188 216.934C568.504 229.517 569.591 269.516 569.591 269.516Z" fill="url(#paint31_linear)"/>
<path d="M450.808 267.79C450.808 267.79 450.808 279.861 451.926 288.499C430.681 297.444 426.143 304.544 426.418 306.004L421.89 288.618L430.787 287.72L436.412 262.702C439.694 265.798 450.808 267.79 450.808 267.79Z" fill="url(#paint32_linear)"/>
<path d="M423.874 314.741H332.605L315.877 247.525C315.67 246.699 315.665 245.84 315.864 245.013C316.062 244.185 316.459 243.41 317.023 242.746C317.588 242.082 318.306 241.546 319.123 241.178C319.941 240.81 320.837 240.62 321.745 240.621H407.062L423.874 314.741Z" fill="url(#paint33_linear)"/>
<path d="M544.726 331.446C544.726 331.446 555.956 359.354 520.262 371.07C497.181 378.644 453.773 377.086 453.773 377.086L404.856 461.747C403.275 464.471 400.784 466.639 397.764 467.92L396.402 468.492C394.735 470.721 389.743 482.298 387.052 481.243L361.406 470.031C359.116 469.153 364.825 461.402 365.923 459.331C366.683 457.891 365.438 449.233 366.588 444.746C374.503 413.682 397.331 358.615 405.12 349.631C413.067 340.46 425.172 336.407 435.726 334.73C447.188 332.906 461.245 328.409 461.245 328.409L544.726 331.446Z" fill="#1F1844"/>
<path d="M450.164 330.105C450.164 330.105 446.343 329.661 440.38 329.297" stroke="#17FF44" stroke-width="1.95" stroke-miterlimit="10"/>
<path d="M501.783 220.208C498.729 220.756 495.567 220.348 492.787 219.046C490.007 217.745 487.764 215.623 486.406 213.009C486.406 213.009 485.878 212.102 485.182 208.078L484.875 206.294L484.591 204.647L484.232 202.674C483.223 202.794 482.208 202.856 481.192 202.862C473.224 202.862 460.201 199.903 454.512 188.632C450.533 180.742 452.665 172.764 452 167.922C451.335 163.08 448.718 159.925 446.966 154.629C444.729 147.854 446.417 138.781 449.763 136.267C464.823 124.867 495.883 129.6 495.883 129.6C495.883 129.6 506.437 132.44 505.382 152.371C506.31 151.601 504.896 155.97 506.258 155.526C509.107 154.639 511.672 154.737 513.571 155.763C517.793 157.982 518.764 164.579 512.738 174.628C512.674 174.746 512.6 174.865 512.527 174.983C512.554 176.848 512.709 178.709 512.991 180.555C512.991 180.831 513.065 181.117 513.107 181.413C513.592 184.825 514.162 189.243 514.827 193.513C515.714 199.676 516.727 204.952 517.086 207.004C517.962 211.974 512.991 218.512 501.783 220.208Z" fill="url(#paint34_linear)"/>
<path d="M505.403 152.361C506.458 132.431 495.904 129.591 495.904 129.591C495.904 129.591 464.844 124.857 449.784 136.257C447.42 138.032 447.536 141.848 447.43 145.132C453.277 139.383 466.86 139.708 477.403 138.673C482.448 138.18 480.918 143.485 482.353 143.545C493.224 140.271 501.35 144.58 501.434 159.53L506.184 155.526C505.023 155.664 506.31 151.621 505.403 152.361Z" fill="url(#paint35_linear)"/>
<path d="M615.289 510.699H606.171C603.437 510.699 601.221 509.309 601.221 507.583V328.626H620.218V507.583C620.228 509.299 618.012 510.699 615.289 510.699Z" fill="url(#paint36_linear)"/>
<path d="M290.621 510.699H278.738C277.112 510.699 275.793 509.812 275.793 508.727V328.626H293.566V508.717C293.566 509.842 292.247 510.699 290.621 510.699Z" fill="url(#paint37_linear)"/>
<path d="M541.581 323.912L452.222 314.741V287.129L551.85 294.909L541.581 323.912Z" fill="url(#paint38_linear)"/>
<path d="M276.099 314.583H619.732C621.181 314.583 622.615 314.85 623.953 315.368C625.291 315.885 626.507 316.644 627.531 317.601C628.555 318.558 629.367 319.694 629.922 320.945C630.476 322.195 630.761 323.535 630.761 324.888V333.241H265.07V324.888C265.07 322.155 266.232 319.534 268.301 317.601C270.369 315.669 273.174 314.583 276.099 314.583Z" fill="url(#paint39_linear)"/>
<path d="M462.48 310.55L461.52 314.554H423.874L404.16 244.152C404.045 243.739 404.034 243.307 404.126 242.889C404.217 242.471 404.41 242.078 404.689 241.741C404.968 241.403 405.326 241.129 405.735 240.94C406.145 240.752 406.595 240.653 407.051 240.651C407.723 240.651 408.376 240.862 408.904 241.25C409.432 241.638 409.806 242.181 409.964 242.791L421.89 288.618L426.375 305.994C426.372 306.05 426.372 306.106 426.375 306.161V306.221H458.67C459.249 306.204 459.825 306.311 460.352 306.535C460.88 306.759 461.345 307.092 461.713 307.511C462.081 307.929 462.342 308.42 462.475 308.947C462.608 309.474 462.61 310.022 462.48 310.55Z" fill="url(#paint40_linear)"/>
<path d="M365.86 286.635C370.091 286.635 373.522 283.43 373.522 279.476C373.522 275.522 370.091 272.317 365.86 272.317C361.628 272.317 358.198 275.522 358.198 279.476C358.198 283.43 361.628 286.635 365.86 286.635Z" fill="white"/>
<path d="M532.051 270.206L529.55 256.696" stroke="white" stroke-miterlimit="10" stroke-linecap="round"/>
<path d="M450.808 267.79L453.034 256.696" stroke="white" stroke-miterlimit="10" stroke-linecap="round"/>
<path d="M517.656 145.251C517.803 141.76 517.086 138.071 515.851 133.052C513.191 122.204 505.413 117.697 493.245 115.656L481.635 114.394C480.58 114.275 461.119 112.954 452.085 117.934C448.686 119.798 444.222 124.344 444.275 127.372C444.412 135.103 444.275 139.205 446.153 145.122C450.122 129.295 459.135 147.824 480.358 131.691C484.295 128.733 483.873 136.503 485.308 136.563C497.582 132.865 506.31 138.821 504.041 158.82C507.207 157.055 509.318 155.231 511.207 154.994C513.592 152.154 517.582 147.085 517.656 145.251Z" fill="#1F1844"/>
<path d="M513.128 181.452C510.63 187.271 506.81 192.513 501.933 196.817C497.055 201.122 491.235 204.385 484.875 206.382L484.59 204.735L484.232 202.763C483.223 202.882 482.208 202.945 481.192 202.95C487.419 197.941 504.738 183.78 512.759 174.717C512.695 174.835 512.621 174.954 512.548 175.072C512.575 176.937 512.73 178.798 513.012 180.644C513.054 180.821 513.086 181.107 513.128 181.452Z" fill="url(#paint41_linear)"/>
<path d="M506.162 157.923C506.542 157.518 507.724 156.522 507.724 156.522L506.817 152.834L501.244 156.305C500.718 156.634 500.301 157.093 500.04 157.632C499.778 158.17 499.684 158.766 499.767 159.353L501.635 172.459C493.909 176.886 476.306 189.608 472.971 190.121C468.749 190.781 467.335 185.851 465.055 186.994C462.776 188.138 463.113 191.107 461.53 191.107C460.707 191.107 455.314 187.951 453.541 185.831C453.541 185.831 456.285 194.193 456.876 195.692C458.237 199.095 466.185 205.978 466.185 205.978C466.587 206.352 467.076 206.636 467.614 206.807C468.151 206.978 468.724 207.032 469.287 206.964L479.261 205.84L484.274 202.931C491.26 199.173 507.429 184.381 507.492 182.36C507.851 170.536 502.363 161.936 506.162 157.923Z" fill="#1F1844"/>
<path d="M507.914 161.591C507.914 161.591 510.162 157.647 512.537 160.112C514.911 162.577 512.537 167.636 512.537 167.636L507.914 161.591Z" fill="#C68F6C"/>
<path d="M567.797 269.812C567.702 278.263 567.037 297.424 563.164 305.609C558.119 316.269 551.206 316.131 532.315 313.163C513.424 310.195 482.142 299.682 472.411 299.682C462.681 299.682 456.581 306.26 456.581 306.26H426.27C425.996 304.8 426.112 297.286 449.172 289.278C453.035 287.75 464.169 286.488 473.815 285.837C500.305 284.052 532.917 288.568 532.917 288.568C532.917 288.568 532.79 277.198 532.041 270.551C539.133 273.53 561.254 270.739 567.797 269.812Z" fill="url(#paint42_linear)"/>
<path d="M506.046 290.205C506.046 290.205 515.693 289.466 515.693 297.02C515.693 304.574 506.046 304.653 506.046 304.653" stroke="#D6D9E8" stroke-width="5.49" stroke-miterlimit="10"/>
<path d="M507.186 314.583H483.187L479.82 282.681C479.789 282.265 479.851 281.848 480.004 281.456C480.157 281.065 480.397 280.708 480.708 280.409C481.019 280.11 481.394 279.876 481.808 279.722C482.223 279.568 482.667 279.498 483.113 279.515H506.12C506.558 279.497 506.996 279.564 507.405 279.713C507.813 279.861 508.185 280.086 508.495 280.376C508.806 280.665 509.049 281.011 509.209 281.393C509.368 281.774 509.442 282.183 509.424 282.592L507.186 314.583Z" fill="url(#paint43_linear)"/>
<path d="M482.744 216.116C482.744 216.116 484.242 224.991 500.601 224.172C516.959 223.354 521.93 211.352 521.93 211.352" stroke="white" stroke-miterlimit="10" stroke-linecap="round"/>
<path d="M321.28 487.693C321.28 487.693 311.275 485.632 307.444 486.914C303.613 488.196 302.632 490.858 302.357 493.708C302.083 496.558 305.302 500.611 317.734 504.911C330.47 509.154 343.442 512.752 356.593 515.689C360.667 516.459 367.569 517.603 373.48 517.287C375.104 517.177 376.649 516.588 377.891 515.604C379.134 514.62 380.01 513.293 380.392 511.814C380.694 510.678 381.104 509.569 381.617 508.5C382.672 506.528 382.271 504.201 382.883 502.584C383.495 500.966 384.994 489.764 381.617 488.146C378.239 486.529 372.794 496.104 365.321 495.316C357.849 494.527 357.016 485.789 357.016 485.789C357.016 485.789 360.583 482.742 358.662 480.602C356.741 478.462 358.947 476.766 357.427 475.918C355.907 475.07 350.546 478.058 350.546 478.058C350.546 478.058 333.29 484.685 326.525 487.357C325.143 487.85 321.28 487.693 321.28 487.693Z" fill="#191337"/>
<path d="M306.843 496.036C329.006 507.869 354.778 508.116 354.778 508.116C361.986 509.684 369.184 514.161 378.429 509.023L379.242 508.609" stroke="white" stroke-miterlimit="10" stroke-linecap="round"/>
<path d="M446.428 465.001C446.428 465.001 459.23 468.6 461.731 472.496C464.232 476.391 472.781 464.508 469.013 457.792C465.245 451.077 470.385 452.171 473.921 454.903C477.456 457.634 480.316 455.652 482.786 457.615C485.255 459.577 490.332 463.926 486.627 472.091C482.923 480.257 474.628 483.768 471.335 489.892C468.042 496.016 469.224 508.49 464.169 513.155C459.114 517.819 449.51 523.786 438.618 518.806C427.726 513.826 437.457 500.207 439.99 496.814C442.523 493.422 443.019 481.825 443.156 477.091C443.293 472.358 442.46 466.451 446.428 465.001Z" fill="#191337"/>
<path d="M473.625 456.382C473.625 456.382 480.791 458.414 478.311 466.599C475.831 474.784 466.776 481.046 465.847 489.694C464.918 498.343 465.003 506.025 456.042 512.297C447.082 518.569 443.167 517.691 443.167 517.691" stroke="white" stroke-width="0.76" stroke-miterlimit="10"/>
<defs>
<linearGradient id="paint0_linear" x1="12.4008" y1="303.262" x2="673.599" y2="303.262" gradientUnits="userSpaceOnUse">
<stop stop-color="#F0F2F5"/>
<stop offset="0.99" stop-color="#F5F7F8"/>
</linearGradient>
<linearGradient id="paint1_linear" x1="103.449" y1="458.424" x2="80.787" y2="274.423" gradientUnits="userSpaceOnUse">
<stop stop-color="#1F1844"/>
<stop offset="0.99" stop-color="#3D3C99"/>
</linearGradient>
<linearGradient id="paint2_linear" x1="102.14" y1="453.7" x2="82.2118" y2="291.847" gradientUnits="userSpaceOnUse">
<stop stop-color="#3F3D9E"/>
<stop offset="0.99" stop-color="#423E9F"/>
</linearGradient>
<linearGradient id="paint3_linear" x1="115.417" y1="390.892" x2="210.814" y2="367.434" gradientUnits="userSpaceOnUse">
<stop offset="0.01" stop-color="#BBC0D9"/>
<stop offset="1" stop-color="#D6DBF8"/>
</linearGradient>
<linearGradient id="paint4_linear" x1="119" y1="406.895" x2="193.739" y2="407.163" gradientUnits="userSpaceOnUse">
<stop stop-color="#BAC6D8"/>
<stop offset="0.99" stop-color="#D6DBF8"/>
</linearGradient>
<linearGradient id="paint5_linear" x1="3053.25" y1="12191.6" x2="2228.44" y2="11342.3" gradientUnits="userSpaceOnUse">
<stop stop-color="#1F1844"/>
<stop offset="0.99" stop-color="#3D3C99"/>
</linearGradient>
<linearGradient id="paint6_linear" x1="3522.77" y1="7463.07" x2="2682.87" y2="6827.56" gradientUnits="userSpaceOnUse">
<stop stop-color="#1F1844"/>
<stop offset="0.99" stop-color="#3D3C99"/>
</linearGradient>
<linearGradient id="paint7_linear" x1="3386.81" y1="11098.7" x2="4201.96" y2="10295.5" gradientUnits="userSpaceOnUse">
<stop stop-color="#1F1844"/>
<stop offset="0.99" stop-color="#3D3C99"/>
</linearGradient>
<linearGradient id="paint8_linear" x1="3159.25" y1="7641.33" x2="3784.84" y2="7080.89" gradientUnits="userSpaceOnUse">
<stop stop-color="#1F1844"/>
<stop offset="0.99" stop-color="#3D3C99"/>
</linearGradient>
<linearGradient id="paint9_linear" x1="4105.98" y1="5764.52" x2="2767.27" y2="5230.04" gradientUnits="userSpaceOnUse">
<stop stop-color="#1F1844"/>
<stop offset="0.99" stop-color="#3D3C99"/>
</linearGradient>
<linearGradient id="paint10_linear" x1="2945.53" y1="9222.43" x2="3519.73" y2="8696.5" gradientUnits="userSpaceOnUse">
<stop stop-color="#1F1844"/>
<stop offset="0.99" stop-color="#3D3C99"/>
</linearGradient>
<linearGradient id="paint11_linear" x1="112.219" y1="335.273" x2="103.94" y2="371.526" gradientUnits="userSpaceOnUse">
<stop offset="0.01" stop-color="#3D3C99"/>
<stop offset="1" stop-color="#1F1844"/>
</linearGradient>
<linearGradient id="paint12_linear" x1="82.7515" y1="385.851" x2="90.8937" y2="377.024" gradientUnits="userSpaceOnUse">
<stop stop-color="#E0E4EB"/>
<stop offset="0.99" stop-color="#F3F6FD"/>
</linearGradient>
<linearGradient id="paint13_linear" x1="12045.5" y1="-118515" x2="12161.9" y2="-118904" gradientUnits="userSpaceOnUse">
<stop stop-color="#E0E4EB"/>
<stop offset="0.99" stop-color="#F3F6FD"/>
</linearGradient>
<linearGradient id="paint14_linear" x1="-68399.3" y1="60450" x2="-68169.6" y2="60754.3" gradientUnits="userSpaceOnUse">
<stop stop-color="#E0E4EB"/>
<stop offset="0.99" stop-color="#F3F6FD"/>
</linearGradient>
<linearGradient id="paint15_linear" x1="1795.24" y1="6411.31" x2="1969.99" y2="6224.15" gradientUnits="userSpaceOnUse">
<stop offset="0.01" stop-color="#BBC0D9"/>
<stop offset="1" stop-color="#D6DBF8"/>
</linearGradient>
<linearGradient id="paint16_linear" x1="-47217.9" y1="43532.7" x2="-47041.2" y2="43856.1" gradientUnits="userSpaceOnUse">
<stop stop-color="#E0E4EB"/>
<stop offset="0.99" stop-color="#F3F6FD"/>
</linearGradient>
<linearGradient id="paint17_linear" x1="125.669" y1="-32064.3" x2="409.328" y2="-32136.5" gradientUnits="userSpaceOnUse">
<stop stop-color="#E0E4EB"/>
<stop offset="0.99" stop-color="#F3F6FD"/>
</linearGradient>
<linearGradient id="paint18_linear" x1="-9218.9" y1="-155178" x2="-9202.8" y2="-155609" gradientUnits="userSpaceOnUse">
<stop stop-color="#E0E4EB"/>
<stop offset="0.99" stop-color="#F3F6FD"/>
</linearGradient>
<linearGradient id="paint19_linear" x1="1957.66" y1="7667.82" x2="2159.35" y2="7446.29" gradientUnits="userSpaceOnUse">
<stop offset="0.01" stop-color="#BBC0D9"/>
<stop offset="1" stop-color="#D6DBF8"/>
</linearGradient>
<linearGradient id="paint20_linear" x1="-65216.4" y1="50907.3" x2="-65092.3" y2="51258.6" gradientUnits="userSpaceOnUse">
<stop stop-color="#E0E4EB"/>
<stop offset="0.99" stop-color="#F3F6FD"/>
</linearGradient>
<linearGradient id="paint21_linear" x1="114.245" y1="334.76" x2="105.957" y2="371.014" gradientUnits="userSpaceOnUse">
<stop stop-color="#E6EAF1"/>
<stop offset="0.99" stop-color="#F3F6FD"/>
</linearGradient>
<linearGradient id="paint22_linear" x1="75.7344" y1="492.692" x2="146.992" y2="475.166" gradientUnits="userSpaceOnUse">
<stop offset="0.11" stop-color="#8988D5"/>
<stop offset="0.56" stop-color="#9D9CE8"/>
<stop offset="1" stop-color="#A7A5EE"/>
</linearGradient>
<linearGradient id="paint23_linear" x1="96.8422" y1="180.17" x2="429.594" y2="180.17" gradientUnits="userSpaceOnUse">
<stop offset="0.01" stop-color="#BBBFD9"/>
<stop offset="1" stop-color="#D6DBF8"/>
</linearGradient>
<linearGradient id="paint24_linear" x1="12147.8" y1="50128" x2="12884.1" y2="50128" gradientUnits="userSpaceOnUse">
<stop offset="0.01" stop-color="#BBBFD9"/>
<stop offset="1" stop-color="#D6DBF8"/>
</linearGradient>
<linearGradient id="paint25_linear" x1="470.28" y1="476.135" x2="458.544" y2="454.079" gradientUnits="userSpaceOnUse">
<stop stop-color="#FFD0B9"/>
<stop offset="0.04" stop-color="#FACAB2"/>
<stop offset="0.35" stop-color="#D7A384"/>
<stop offset="0.62" stop-color="#BE8662"/>
<stop offset="0.85" stop-color="#AF744D"/>
<stop offset="1" stop-color="#A96E46"/>
</linearGradient>
<linearGradient id="paint26_linear" x1="15222.4" y1="50541.5" x2="15983.8" y2="50541.5" gradientUnits="userSpaceOnUse">
<stop offset="0.01" stop-color="#BBBFD9"/>
<stop offset="1" stop-color="#D6DBF8"/>
</linearGradient>
<linearGradient id="paint27_linear" x1="13169.5" y1="56413.2" x2="13825.7" y2="56413.2" gradientUnits="userSpaceOnUse">
<stop offset="0.01" stop-color="#BBBFD9"/>
<stop offset="1" stop-color="#D6DBF8"/>
</linearGradient>
<linearGradient id="paint28_linear" x1="509.424" y1="382.687" x2="509.424" y2="219.942" gradientUnits="userSpaceOnUse">
<stop stop-color="#201F4F"/>
<stop offset="0.39" stop-color="#3D3C99"/>
<stop offset="1" stop-color="#403DA0"/>
</linearGradient>
<linearGradient id="paint29_linear" x1="564.124" y1="304.82" x2="579.932" y2="306.512" gradientUnits="userSpaceOnUse">
<stop offset="0.11" stop-color="#343381"/>
<stop offset="0.56" stop-color="#3D3C99"/>
<stop offset="1" stop-color="#403DA0"/>
</linearGradient>
<linearGradient id="paint30_linear" x1="12099.5" y1="17281.2" x2="12606.4" y2="16299.8" gradientUnits="userSpaceOnUse">
<stop stop-color="#FFD0B9"/>
<stop offset="0.04" stop-color="#FACAB2"/>
<stop offset="0.35" stop-color="#D7A384"/>
<stop offset="0.62" stop-color="#BE8662"/>
<stop offset="0.85" stop-color="#AF744D"/>
<stop offset="1" stop-color="#A96E46"/>
</linearGradient>
<linearGradient id="paint31_linear" x1="521.677" y1="249.241" x2="674.042" y2="249.241" gradientUnits="userSpaceOnUse">
<stop stop-color="#A7A5EE"/>
<stop offset="0.44" stop-color="#9D9CE8"/>
<stop offset="0.89" stop-color="#8988D5"/>
</linearGradient>
<linearGradient id="paint32_linear" x1="480.865" y1="260.887" x2="569.69" y2="212.627" gradientUnits="userSpaceOnUse">
<stop stop-color="#A96E46"/>
<stop offset="0.15" stop-color="#AF744D"/>
<stop offset="0.38" stop-color="#BE8662"/>
<stop offset="0.65" stop-color="#D7A384"/>
<stop offset="0.96" stop-color="#FACAB2"/>
<stop offset="1" stop-color="#FFD0B9"/>
</linearGradient>
<linearGradient id="paint33_linear" x1="289.334" y1="277.691" x2="431.325" y2="277.691" gradientUnits="userSpaceOnUse">
<stop offset="0.01" stop-color="#BBBFD9"/>
<stop offset="0.29" stop-color="#CACDE2"/>
<stop offset="0.84" stop-color="#F2F3F8"/>
<stop offset="1" stop-color="white"/>
</linearGradient>
<linearGradient id="paint34_linear" x1="30433.6" y1="18150" x2="37155.2" y2="15502.3" gradientUnits="userSpaceOnUse">
<stop stop-color="#A96E46"/>
<stop offset="0.15" stop-color="#AF744D"/>
<stop offset="0.38" stop-color="#BE8662"/>
<stop offset="0.65" stop-color="#D7A384"/>
<stop offset="0.96" stop-color="#FACAB2"/>
<stop offset="1" stop-color="#FFD0B9"/>
</linearGradient>
<linearGradient id="paint35_linear" x1="468.095" y1="152.341" x2="499.327" y2="130.744" gradientUnits="userSpaceOnUse">
<stop stop-color="#FFD0B9" stop-opacity="0"/>
<stop offset="1" stop-color="#A96E46"/>
</linearGradient>
<linearGradient id="paint36_linear" x1="11423.1" y1="77810" x2="11765.4" y2="77810" gradientUnits="userSpaceOnUse">
<stop offset="0.11" stop-color="#8988D5"/>
<stop offset="0.56" stop-color="#9D9CE8"/>
<stop offset="1" stop-color="#A7A5EE"/>
</linearGradient>
<linearGradient id="paint37_linear" x1="4920.14" y1="77810" x2="5219.43" y2="77810" gradientUnits="userSpaceOnUse">
<stop offset="0.11" stop-color="#8988D5"/>
<stop offset="0.56" stop-color="#9D9CE8"/>
<stop offset="1" stop-color="#A7A5EE"/>
</linearGradient>
<linearGradient id="paint38_linear" x1="43141.9" y1="11683" x2="52546.8" y2="11683" gradientUnits="userSpaceOnUse">
<stop stop-color="#A7A5EE"/>
<stop offset="0.44" stop-color="#9D9CE8"/>
<stop offset="0.89" stop-color="#8988D5"/>
</linearGradient>
<linearGradient id="paint39_linear" x1="155468" y1="6591.52" x2="155468" y2="6273.4" gradientUnits="userSpaceOnUse">
<stop offset="0.11" stop-color="#343381"/>
<stop offset="0.56" stop-color="#3D3C99"/>
<stop offset="1" stop-color="#403DA0"/>
</linearGradient>
<linearGradient id="paint40_linear" x1="411.98" y1="303.952" x2="443.302" y2="260.117" gradientUnits="userSpaceOnUse">
<stop stop-color="white"/>
<stop offset="0.16" stop-color="#F2F3F8"/>
<stop offset="0.71" stop-color="#CACDE2"/>
<stop offset="0.99" stop-color="#BBBFD9"/>
</linearGradient>
<linearGradient id="paint41_linear" x1="513.244" y1="179.934" x2="486.645" y2="207.872" gradientUnits="userSpaceOnUse">
<stop stop-color="#A96E46"/>
<stop offset="1" stop-color="#FFD0B9" stop-opacity="0"/>
</linearGradient>
<linearGradient id="paint42_linear" x1="67860" y1="14033.3" x2="72216.9" y2="7086.92" gradientUnits="userSpaceOnUse">
<stop stop-color="#A96E46"/>
<stop offset="0.15" stop-color="#AF744D"/>
<stop offset="0.38" stop-color="#BE8662"/>
<stop offset="0.65" stop-color="#D7A384"/>
<stop offset="0.96" stop-color="#FACAB2"/>
<stop offset="1" stop-color="#FFD0B9"/>
</linearGradient>
<linearGradient id="paint43_linear" x1="13943.3" y1="10842" x2="14774.5" y2="10842" gradientUnits="userSpaceOnUse">
<stop stop-color="white"/>
<stop offset="0.16" stop-color="#F2F3F8"/>
<stop offset="0.71" stop-color="#CACDE2"/>
<stop offset="0.99" stop-color="#BBBFD9"/>
</linearGradient>
</defs>
</svg>
