<svg width="120" height="111" viewBox="0 0 120 111" fill="none" xmlns="http://www.w3.org/2000/svg">
<path d="M47.8181 56.7249C48.99 58.0799 50.8894 58.0799 52.0612 56.7249L54.1819 54.2729C55.3538 52.9179 55.3538 50.7218 54.1819 49.3668L47.4844 41.625L54.18 33.881C55.3519 32.526 55.3519 30.3299 54.18 28.9749L52.0594 26.5229C50.8875 25.1679 48.9881 25.1679 47.8162 26.5229L36.8775 39.1709C35.7056 40.5258 35.7056 42.722 36.8775 44.077L47.8181 56.7249ZM65.82 54.2751L67.9406 56.7271C69.1125 58.0821 71.0119 58.0821 72.1838 56.7271L83.1225 44.0791C84.2944 42.7242 84.2944 40.528 83.1225 39.173L72.1838 26.5251C71.0119 25.1701 69.1125 25.1701 67.9406 26.5251L65.82 28.9771C64.6481 30.3321 64.6481 32.5282 65.82 33.8832L72.5156 41.625L65.82 49.369C64.6481 50.724 64.6481 52.9201 65.82 54.2751ZM117 90.1875H71.5387C71.4 94.4822 68.7806 97.125 65.4 97.125H54C50.4956 97.125 47.8088 93.3376 47.8556 90.1875H3C1.35 90.1875 0 91.7484 0 93.6562V97.125C0 104.756 5.4 111 12 111H108C114.6 111 120 104.756 120 97.125V93.6562C120 91.7484 118.65 90.1875 117 90.1875ZM108 10.4062C108 4.68281 103.95 0 99 0H21C16.05 0 12 4.68281 12 10.4062V83.25H108V10.4062ZM96 69.375H24V13.875H96V69.375Z" fill="#F7AA22"/>
</svg>
