<svg width="120" height="111" viewBox="0 0 120 111" fill="none" xmlns="http://www.w3.org/2000/svg">
<path d="M90 44.4V14.8L60 0L30 14.8V44.4L0 59.2V96.2L30 111L60 96.2L90 111L120 96.2V59.2L90 44.4ZM60.675 8.288L82.5 18.944L63 28.564L41.175 17.908L60.675 8.288ZM37.5 20.572L60 31.672V58.312L37.5 47.212V20.572ZM30 102.712L7.5 91.612V64.972L30 76.072V102.712ZM32.1 73.112L10.5 62.308L30 52.688L51.6 63.344L32.1 73.112ZM90 102.712L67.5 91.612V64.972L90 76.072V102.712ZM92.1 73.112L70.5 62.308L90 52.688L111.6 63.344L92.1 73.112Z" fill="#1F1844"/>
</svg>
