<svg width="94" height="94" viewBox="0 0 94 94" fill="none" xmlns="http://www.w3.org/2000/svg">
<path d="M0 59.549C0 62.042 0.990354 64.433 2.7532 66.1958C4.51604 67.9586 6.90696 68.949 9.4 68.949C11.893 68.949 14.284 67.9586 16.0468 66.1958C17.8096 64.433 18.8 62.042 18.8 59.549V50.149H9.4C6.90696 50.149 4.51604 51.1394 2.7532 52.9022C0.990354 54.665 0 57.056 0 59.549ZM59.408 43.851C61.901 43.851 64.292 42.8606 66.0548 41.0978C67.8176 39.335 68.808 36.944 68.808 34.451V9.4C68.808 6.90696 67.8176 4.51604 66.0548 2.7532C64.292 0.990354 61.901 0 59.408 0C56.915 0 54.524 0.990354 52.7612 2.7532C50.9984 4.51604 50.008 6.90696 50.008 9.4V34.451C50.0079 35.6934 50.2542 36.9234 50.7324 38.0701C51.2107 39.2167 51.9115 40.2571 52.7943 41.1313C53.6772 42.0054 54.7246 42.6958 55.8759 43.1626C57.0272 43.6295 58.2597 43.8634 59.502 43.851H59.408ZM93.812 34.451C93.812 31.958 92.8216 29.567 91.0588 27.8042C89.296 26.0413 86.905 25.051 84.412 25.051C81.919 25.051 79.528 26.0413 77.7652 27.8042C76.0023 29.567 75.012 31.958 75.012 34.451V43.851H84.412C85.6621 43.876 86.9047 43.6513 88.067 43.1902C89.2292 42.729 90.2878 42.0405 91.1807 41.1652C92.0735 40.2898 92.7828 39.2451 93.2669 38.0922C93.751 36.9393 94.0002 35.7014 94 34.451H93.812ZM34.498 50.149C32.005 50.149 29.614 51.1394 27.8512 52.9022C26.0884 54.665 25.098 57.056 25.098 59.549V84.6C25.098 87.093 26.0884 89.4839 27.8512 91.2468C29.614 93.0096 32.005 94 34.498 94C36.991 94 39.382 93.0096 41.1448 91.2468C42.9076 89.4839 43.898 87.093 43.898 84.6V59.549C43.898 57.056 42.9076 54.665 41.1448 52.9022C39.382 51.1394 36.991 50.149 34.498 50.149ZM59.502 75.2H50.102V84.6C50.102 86.4591 50.6533 88.2765 51.6862 89.8223C52.7191 91.3682 54.1871 92.573 55.9048 93.2845C57.6224 93.9959 59.5124 94.1821 61.3358 93.8194C63.1593 93.4567 64.8342 92.5614 66.1488 91.2468C67.4634 89.9322 68.3587 88.2573 68.7214 86.4338C69.0841 84.6104 68.8979 82.7204 68.1865 81.0028C67.475 79.2851 66.2702 77.8171 64.7244 76.7842C63.1785 75.7513 61.3611 75.2 59.502 75.2ZM84.6 50.149H59.502C57.009 50.149 54.618 51.1394 52.8552 52.9022C51.0924 54.665 50.102 57.056 50.102 59.549C50.102 62.042 51.0924 64.433 52.8552 66.1958C54.618 67.9586 57.009 68.949 59.502 68.949H84.6C87.093 68.949 89.484 67.9586 91.2468 66.1958C93.0096 64.433 94 62.042 94 59.549C94 57.056 93.0096 54.665 91.2468 52.9022C89.484 51.1394 87.093 50.149 84.6 50.149ZM34.498 25.051H9.4C6.90696 25.051 4.51604 26.0413 2.7532 27.8042C0.990354 29.567 0 31.958 0 34.451C0 36.944 0.990354 39.335 2.7532 41.0978C4.51604 42.8606 6.90696 43.851 9.4 43.851H34.498C36.991 43.851 39.382 42.8606 41.1448 41.0978C42.9076 39.335 43.898 36.944 43.898 34.451C43.898 31.958 42.9076 29.567 41.1448 27.8042C39.382 26.0413 36.991 25.051 34.498 25.051ZM34.498 0C32.005 0 29.614 0.990354 27.8512 2.7532C26.0884 4.51604 25.098 6.90696 25.098 9.4C25.098 11.893 26.0884 14.284 27.8512 16.0468C29.614 17.8096 32.005 18.8 34.498 18.8H43.898V9.4C43.898 6.90696 42.9076 4.51604 41.1448 2.7532C39.382 0.990354 36.991 0 34.498 0Z" fill="#C5C7D1"/>
</svg>
