<svg width="44" height="41" viewBox="0 0 44 41" fill="none" xmlns="http://www.w3.org/2000/svg">
<path d="M33 16.4V5.46667L22 0L11 5.46667V16.4L0 21.8667V35.5333L11 41L22 35.5333L33 41L44 35.5333V21.8667L33 16.4ZM22.2475 3.06133L30.25 6.99733L23.1 10.5507L15.0975 6.61467L22.2475 3.06133ZM13.75 7.59867L22 11.6987V21.5387L13.75 17.4387V7.59867ZM11 37.9387L2.75 33.8387V23.9987L11 28.0987V37.9387ZM11.77 27.0053L3.85 23.0147L11 19.4613L18.92 23.3973L11.77 27.0053ZM33 37.9387L24.75 33.8387V23.9987L33 28.0987V37.9387ZM33.77 27.0053L25.85 23.0147L33 19.4613L40.92 23.3973L33.77 27.0053Z" fill="white"/>
</svg>
