<svg width="94" height="94" viewBox="0 0 94 94" fill="none" xmlns="http://www.w3.org/2000/svg">
<path d="M92.3551 53.5799C92.0413 53.2546 91.6689 53.0241 91.2682 52.9072C88.9124 55.834 85.975 58.8717 83.4342 60.9397C82.2093 61.8914 80.6965 62.3566 79.7154 62.3566C77.4066 62.3566 76.4255 59.7482 76.1494 55.4976C75.6419 47.8295 75.4175 40.1375 75.4767 32.4449C75.4767 21.6752 73.4411 14.3118 68.1185 13.7537L67.4136 13.6964C64.156 13.6964 62.5492 15.7466 60.4842 20.9453C58.6777 25.4357 55.8931 31.9225 50.7702 44.3308C46.8974 53.7069 42.3075 62.6172 37.0614 70.9437C35.8365 72.7505 34.9053 73.9992 34.0006 74.7649C33.4953 75.1943 32.8991 75.4161 32.2704 75.4376C30.5873 75.4376 29.333 73.7237 28.9512 69.6592C28.8403 68.5649 28.7893 67.4628 28.7984 66.3603C28.7984 58.0129 31.3833 44.4275 35.8365 24.4875C39.094 9.9324 37.7193 0 30.5903 0H30.4845C28.8777 0 27.5471 0.765682 26.2458 2.01439C24.9592 3.20585 23.705 5.87142 22.483 9.44938C21.1524 13.4567 13.0128 33.4503 0.00893408 43.7942C-0.143811 47.6691 1.66269 51.5834 5.37851 52.0485C8.69778 52.4385 11.0859 50.7247 14.1437 48.1915L13.5151 51.6764C12.7248 55.7738 12.0712 59.9085 11.5559 64.0704C9.74937 84.1213 17.3249 94 26.2135 94C27.6969 94 29.1803 93.7567 30.6343 93.2737C40.4247 90.2718 49.8185 76.5396 60.9865 44.9534C60.8343 48.1621 60.8186 51.3782 60.9395 54.5888C61.6886 72.7219 67.5193 78.1067 75.8263 78.1067C82.0976 78.1067 87.9284 74.1567 90.9099 69.1797C92.8394 66.1993 93.9236 62.5373 94 58.7428C93.9236 56.3957 93.3273 54.5316 92.3462 53.5799H92.3551Z" fill="#C5C7D1"/>
</svg>
